<svg viewBox="0 0 112 118" xmlns="http://www.w3.org/2000/svg"><path d="m80.572.38452c.3931-.021372.7861-.042744 1.7538.140236 1.4393.128359 2.3039.052364 3.1685-.023631.5737.466523 1.1473.933045 1.8761 1.832355.155.43279.4497.75238.4497.75238l.4347-.02368s.1798.12798.2325.43663c.0526.30866.3742.60203.3742.60203l.4336-.04451c.5267.50249 1.0535 1.00498 1.7638 2.00845.6372.77551 1.0906 1.05004 1.5441 1.32458 0 0 .008.00234.0384.27358.4392.52407.8479.77691 1.2567 1.02974 0 0 .1685.10833.1842.37321s.2866.52149.2866.52149l.359-.10439s.1929.13003.2541.48991c.4922.6095.923.8591 1.3539 1.1087 0 0-.0013.0189.0359.28.4428.4898.8484.7185 1.2541.9472 0 0 .2293.1679.241.4748.0118.3069.2543.6135.2543.6135l.3913-.0182s.1139.1332.0326.4303c-.0858.6373.061.8899.3589 1.0549.027 8.3583.0539 16.7167-.1749 25.6516-.5725 1.3597-.889 2.1428-1.6305 3.0058-1.5742.0475-2.7237.0152-4.0534-.2258-1.4028-.0734-2.6253.0617-4.2957.2602-3.7628.0235-7.0777-.0164-10.4997-.4121-.2822-6.3288-.3407-12.3092-.71-18.2704-.0986-1.5904-1.1487-3.1221-2.0628-4.8976-12.8229-.2979-25.3448-.3887-37.8669-.4275-.5482-.0017-1.0979.4715-1.9329.812-.3097.6873-.3335 1.2861-.3173 2.3186.0016 6.9299-.0369 13.426-.2766 19.991-.4584.2367-.5853.4741-1.0401.8643-6.9015.0195-13.345-.0445-19.7826-.4211-.2734-1.3319-.5525-2.3512-.8316-3.3706-.0165-8.3336-.033-16.6672.2605-25.5367.542-.9527.774-1.3696 1.0061-1.7865 0 0 .1038-.1591.3518-.2312.46-.1979.5589-.3837.5447-.6295 0 0 .0686-.1685.3963-.2653.6167-.4886.9056-.8802 1.1945-1.2719 0 0 .2407-.33057.6885-.49772.9979-.86097 1.5479-1.5548 2.098-2.24862 0 0 .1225.11848.2982-.01206.315-.41284.4543-.69514.5936-.97744 0 0 .2774-.3614.614-.51561.5341-.26817.6227-.43861.6025-.66551.2685-.30864.5369-.61728 1.1996-1.14422.5957-.33749.6878-.51367.6705-.74682 0 0 .1164-.20329.3762-.2971.4694-.21803.5682-.40171.5562-.64485 0 0 .1127-.19427.3634-.27397.4566-.18992.5547-.36158.545-.59466.106-.1158.212-.23159.961-.424543 16.0885-.065009 31.5341-.030085 46.9795-.065606 2.2814-.005246 4.562-.343803 6.8429-.528151z" fill="#f04"/><path d="m97.3733 105.999c-2.902 2.974-5.8039 5.949-9.2194 9.126-.7087.458-.9038.713-1.0989.969 0 0-.0219-.058-.3908-.043-3.2672.312-6.1638.847-9.064.866-17.148.116-34.2968.112-51.4453.149-3.7797-3.631-7.7091-7.125-11.2484-10.976-1.0732-1.168-1.4583-3.317-1.4903-5.029-.1556-8.3425-.0847-16.6891.2347-25.5248 2.0669-.4718 3.8052-.453 5.6147-.2828.3154.0526.5597-.0462 1.2188-.2145 2.639-.2086 4.863-.3477 7.3788-.3892.6912.0327 1.0907-.0323 1.8642.0435 1.7026.2442 3.0313.3477 4.4396.7097.4031 1.3502.7265 2.4418 1.127 3.9583.0249 5.0602-.0273 9.6956-.3429 14.5259.1632 1.3006.5897 2.4063.9928 3.5427-.0235.0307-.0038-.0439.2527.2478 13.0355.433 25.8151.6546 38.5923.5593.9927-.0074 2.7231-2.1797 2.8173-3.442.3427-4.597-.0403-9.2447.2185-13.8527.1119-1.9906 1.1221-3.9308 2.1564-5.9743 6.0682-.0072 11.704.0661 17.3294.5791.0139 10.4439.0383 20.448.0628 30.452z" fill="#f04"/><path d="m97.3211 75.1072c-5.6359-.0732-11.2718-.1465-17.6817-.2509-1.4873.0445-2.2005.1201-3.1937.0956-.6672-.0564-1.0544-.0125-1.6465-.0671-.2048-.0985-.6553-.1587-.8393-.2727-.4984-.1947-.7621-.1128-1.0308.0533-.0555-.0784.0768-.218-.1665-.5202-11.6441-.432-23.0447-.5743-34.4458-.6508-.5107-.0034-1.0254.59-1.7328 1.0078-.4701.2315-.7545.2559-1.3083-.0944-2.1477-.1317-4.0349.0064-5.9222.1445-.3995.0651-.7991.1301-1.6625-.1813-7.1129-.5255-13.7618-.6878-20.41167-.7851-.33984-.005-.68788.5488-1.0321.8425-1.95941.108-3.91881.216-6.24723.3444 0-10.4838 0-20.5427 0-31.1456 4.16032 0 8.1352 0 12.7626-.0207.6526-.0206 1.0941.0131 1.0941.0131l.3981-.1939c6.4435.064 12.887.128 19.9912.2039.9651-.0456 1.2695-.103 2.0088-.0842 13.7072.0254 26.9796-.0255 40.4815-.0033.6932.0347 1.157-.0039 1.6207-.0425 3.3149.0399 6.6297.0798 10.7097.1729 1.8963-.0206 3.0275-.0944 4.1588-.1682 1.1494.0324 2.2989.0648 4.1489.1279 1.0961-.0322 1.4916-.0952 1.887-.1582 4.1466.1282 8.2936.2564 12.3896 1.0119-.169 10.3849-.287 20.1424-.405 29.8999-3.815.2029-7.63.4059-12.1204.5516-1.0523.0184-1.4284.0941-1.8045.1698zm-55.905-26.9848c-2.1407-.1786-4.2814-.3572-6.671-.9961-1.8375.7056-3.675 1.4112-6.1079 1.7849-5.6118-.312-11.2252-.8037-16.8339-.7544-.9079.008-2.47777 2.3739-2.56779 3.7277-.31674 4.7629-.12495 9.5598-.11982 14.3437.00338 3.1461 1.74111 4.3605 4.72031 4.3231 3.7078-.0466 7.4476.278 11.1113-.1244 1.7012-.1868 3.2552-1.7117 5.4677-2.6458.3915-.0534.7831-.1068 1.7691.2393.8658.8401 1.7043 2.3723 2.6019 2.4076 5.6515.2227 11.3162.1128 17.2316.1128 0-2.5377 0-4.5803 0-6.7524-4.1598.816-8.0238 1.5741-12.3119 2.4153 0-3.1914.0941-5.4978-.0236-7.7934-.1502-2.9289-.305-5.7855 3.2563-7.8076-.2458-.7572-.4915-1.5144-1.5223-2.4803zm36.7833 24.2662c-.7498-.2623-3.4002 4.1783-2.3773-7.0717-.1527-1.9623-.4852-3.6541-.0423-5.9274-.1506-.5255.1828-1.3451-.1264-2.0821 0 0 .0726-.2541.1264-1.2209-.033-.6455-.0661-1.2909-.111-2.6213.5097-4.246-1.5014-5.9262-5.6276-5.7618-3.5452.1413-7.1005.0124-10.6509.0436-3.0102.0265-4.5487 1.5959-4.5626 4.5913-.0214 4.6256-.3257 9.2872.1796 13.8575.1732 1.5661 2.3023 3.994 3.7372 4.1457 4.7277.4997 9.5832.4726 14.3147-.0409 2.227-.2418 4.0425-.8034 6.457-.0232 1.7613.5692 5.125 2.0596 6.592-2.2358-.428-1.205-.8559-2.4099-1.3588-3.8257h11.2838c-.3167 2.2868-.5666 4.0911-.8753 6.3194 2.4001 0 4.2486.4284 5.7001-.1452 1.029-.4065 2.383-2.4439 2.114-3.2781-1.765-5.4763-3.8479-10.8579-6.0326-16.1864-.4978-1.2141-1.7326-2.9071-2.746-2.9929-4.0589-.3439-8.1641-.1421-12.8864-.1421 0 10.2062-.3186 12.9917-3.1076 24.598z" fill="#015fa0"/><path d="m26.4305 117.4c16.8728-.371 34.0216-.367 51.1696-.483 2.9002-.019 5.7968-.554 9.0918-.853-.7016.674-1.7999 1.936-2.8983 1.936-19.0291.003-38.0582-.149-57.3631-.6z" fill="#f04"/><path d="m97.3105 75.547c.3867-.5155.7628-.5912 1.4274-.6178.3136 8.8224.3883 17.5962.3144 26.3688-.0121 1.434-.6794 2.863-1.3614 4.498-.342-9.8011-.3664-19.8052-.3804-30.249z" fill="#f04"/><path d="m80.1586.225586c-1.8676.343301-4.1482.681859-6.4296.687105-15.4454.035521-30.8909.000597-46.7767-.054376.5395-.3257 1.5191-.85389498 2.4993-.85492376 16.7645-.01760724 33.5291.02998936 50.707.22219476z" fill="#f04"/><path d="m6.60319 74.5186c-.01174-.3839.33629-.9377.67613-.9327 6.64988.0973 13.29878.2596 20.11998.6874-2.0518.4179-4.2759.557-7.133.6892-.633-.007-1.072.1395-1.072.1395-1.7382-.0188-3.4764-.0376-5.6496.0125-2.4851-.1226-4.53533-.3141-6.94151-.5959z" fill="#015fa0"/><path d="m111.64 74.2267c-.276-9.5984-.158-19.3559.216-29.4038.23 9.5547.204 19.3997-.216 29.4038z" fill="#015fa0"/><g fill="#f04"><path d="m14.2605 43.1131c-.0058.3126-.4038.5064-.4038.5064s-.4416-.0336-.649-.1107c-.1675-1.1238-.1277-2.1705.0667-3.4918.4337.7449.7128 1.7642.9861 3.0961z"/><path d="m99.242 43.1349c-.3762.4021-.7717.4651-1.4429.4174.0408-.8938.3574-1.6769.8947-2.6039.3234.52.4262 1.1837.5482 2.1865z"/><path d="m19.7008 7.3389c-.2815.63001-.8316 1.32383-1.6708 2.05573.2746-.63859.8384-1.31525 1.6708-2.05573z"/><path d="m85.21.3251c-.5803.252053-1.4449.328047-2.5899.22747.5817-.252224 1.4437-.327876 2.5899-.22747z"/><path d="m14.5025 12.4422c-.0391.394-.2711.8109-.7255 1.3354.0293-.3658.2809-.8392.7255-1.3354z"/><path d="m16.9321 10.0655c-.0382.3476-.3271.7392-.8681 1.1771.0377-.3469.3275-.74.8681-1.1771z"/><path d="m96.2704 10.849c-.3652-.017-.7961-.2666-1.2216-.7808.389.0062.7725.2771 1.2216.7808z"/><path d="m97.5473 12.0891c-.3271-.009-.7327-.2377-1.1661-.7281.3441-.005.7158.2517 1.1661.7281z"/><path d="m92.5254 7.13888c-.376-.02403-.8294-.29856-1.3052-.85244.3944.01441.811.30817 1.3052.85244z"/><path d="m93.8332 8.45644c-.3438-.01658-.7526-.26942-1.1905-.7896.3558.00621.7407.27978 1.1905.7896z"/><path d="m94.7023 9.34142c.0256.1416-.3334.24598-.3334.24598s-.2709-.25661-.229-.43957c.2582-.21253.4232-.13422.5624.19359z"/><path d="m87.2916 116.014c-.0415-.176.1536-.431.5732-.785.0374.169-.1496.437-.5732.785z"/><path d="m15.4251 11.5831c.1811.2213.0822.4071-.2915.565-.1918-.2213-.0964-.4122.2915-.565z"/><path d="m98.5031 13.2224c.0094.1565-.3819.1747-.3819.1747s-.2425-.3066-.1798-.4925c.2965-.1696.4597-.0538.5617.3178z"/><path d="m98.9958 14.654c-.3898.0451-.5366-.2075-.4397-.7579.3965-.0487.5429.204.4397.7579z"/><path d="m89.2426 3.8798c.0524.17656-.3812.22107-.3812.22107s-.3216-.29337-.3111-.5116c.2807-.22162.4905-.1109.6923.29053z"/><path d="m25.6185 1.39793c.1797.238.0816.40965-.2779.54295-.2232-.2389-.1361-.42922.2779-.54295z"/><path d="m20.6282 6.35791c.0936.20997-.0457.49227-.4206.84564-.0946-.2104.0465-.49186.4206-.84564z"/><path d="m24.7054 2.28107c.1868.23352.088.41721-.2817.57371-.2225-.23416-.1335-.43295.2817-.57371z"/><path d="m23.78 3.21925c.185.22731.093.40348-.2616.55002-.2223-.22848-.14-.41898.2616-.55002z"/><path d="m88.2146 2.88281c.0402.17937-.3945.20306-.3945.20306s-.2947-.31959-.2729-.53672c.291-.20298.4928-.07917.6674.33366z"/><path d="m21.9171 5.11136c.1809.22001.0922.39044-.2543.5292-.2094-.22017-.1285-.40253.2543-.5292z"/><path d="m76.7362 43.5421c-.2616-6.2264-.338-12.3799-.3028-18.5327.0131-2.2831-.3481-3.8492-3.2058-3.825-12.0133.1018-24.0276.0799-36.0414.1349-.4186.002-.8356.3402-1.5598.7238-.2827-.3967-.2589-.9955.479-1.668 13.7002-.1099 26.6863-.1462 39.6725-.1824.6132 1.5586 1.6633 3.0903 1.7618 4.6807.3694 5.9612.4279 11.9416.7101 18.2704-.3566.3943-.8203.4329-1.5136.3983z"/><path d="m75.477 19.9758c-12.6852.2532-25.6714.2894-39.0856.3108.1208-.2668.6705-.74 1.2187-.7383 12.5221.0389 25.0441.1296 37.8669.4275z"/><path d="m93.0451 43.2958c-.9509.2823-2.0822.3561-3.5306.3133.9053-.2517 2.1278-.3868 3.5306-.3133z"/><path d="m35.0833 42.6699c.4636.0064.6149.1788.6958.6239-.2637.2328-.5681.2902-1.0752.2523-.206-.4021-.079-.6394.3794-.8762z"/><path d="m36.1965 97.6776c11.8979-.2918 24.0543-.4142 36.2054-.2153 3.5067.0574 4.5279-1.0526 4.3736-4.4659-.2564-5.6737-.0593-11.3678-.0516-17.4988.7148-.5211 1.4281-.5968 2.4831-.5609-.2603 2.0747-1.2705 4.0149-1.3824 6.0055-.2588 4.608.1242 9.2557-.2186 13.8527-.0941 1.2623-1.8245 3.4346-2.8172 3.442-12.7772.0953-25.5568-.1263-38.5923-.5593z"/></g><path d="m29.7274 74.6931c1.5133-.2789 3.4005-.4171 5.5512-.1959.2635.3593.2645.5368-.103.5175-.6077.0303-.848.08-1.0882.1296-1.3287-.1034-2.6574-.2069-4.36-.4512z" fill="#015fa0"/><path d="m34.951 93.8871c.4716.8315.6798 1.8579.9522 3.1982-.3624-.7919-.789-1.8976-.9522-3.1982z" fill="#f04"/><path d="m34.1669 75.4029c.1606-.3082.4008-.3579 1.107-.3057.4659.1018.6986.2124.6986.2124-.1496 1.028-.2992 2.0561-.6023 3.3554-.4769-.8203-.8003-1.9119-1.2033-3.2621z" fill="#f04"/><path d="m19.2655 75.2534c-.0712-.1514.3677-.298.5859-.2215-.0261.1753-.2704.2741-.5859.2215z" fill="#f04"/><path d="m75.7527 56.5699c-2.4833.3689-4.9434.3053-7.3952.1269-3.0972-.2253-3.8161 1.2355-2.8901 4.2416 1.5306.1949 3.1601.4023 5.2157.6641.1102 1.1949.2285 2.4775.3806 4.127-3.7811 0-7.2211 0-10.9525 0 0-4.3741 0-8.6109 0-14.2419 4.1212.943 7.8971 1.8467 11.6943 2.6495 1.0233.2164 4.0532.6413 5.4642.6099.3856.5634-1.5231.694-1.517 1.8229z" fill="#015fa0"/><path d="m34.9297 53.8107c.0453 2.8808-.1417 5.7897.2032 8.6342.3249 2.6791-.9912 3.8616-3.3331 4.9403-.6018.2891-.9933.3425-1.6808.4038-.3294-1.0133-.363-2.0345.0199-3.5789.6536-2.5884 1.1462-4.6635 1.0657-6.7162-.1099-2.805.979-3.9702 3.7251-3.6832z" fill="#015fa0"/><path d="m34.9233 53.4815c-2.7398.0422-3.8286 1.2074-3.7187 4.0124.0804 2.0527-.4122 4.1279-.9474 6.3502-.3684-.5875-.4388-1.3322-.2884-2.737.1299-2.8096.0389-4.9592-.0521-7.1088-.0527-.48-.1055-.9599-.0184-1.8776.2079-.6473.1606-.8306-.002-.9875-.1618-.4152-.3235-.8305-.5745-1.5679 1.7482-1.0278 3.5857-1.7334 5.5477-2.2088-4.8437 2.0171-1.807 3.9146.0538 6.125z" fill="#015fa0"/><path d="m72.7625 74.1452c-11.5443.3492-23.332.3963-35.5518.349.0807-.4098.5954-1.0032 1.1061-.9998 11.401.0765 22.8017.2188 34.4457.6508z" fill="#015fa0"/><path d="m42.74 50.8036c-.274-.4686-.3497-1.1381-.4822-2.1401.1889.4248.4347 1.182.4822 2.1401z" fill="#015fa0"/><path d="m22.7853 65.0734c-3.1056.3395-5.789.6371-8.8084.972 0-4.6914 0-8.9293 0-14.2385 3.779.547 9.3157-.0101 10.229 1.7825 1.5764 3.0942 2.6041 7.9384-1.4206 11.484z" fill="#015fa0"/><path d="m29.8045 54.3767c.2032 1.7712.2942 3.9208.262 6.3662-.2069-1.7987-.2906-3.8933-.262-6.3662z" fill="#015fa0"/><path d="m29.8309 51.3143c.2279-.0242.2752.1591.1484.4511-.0589.0824-.2136-.2701-.1484-.4511z" fill="#015fa0"/><path d="m87.9371 54.0506c4.4468-3.0246 5.4167-2.218 6.1218 4.8946-2.2654 0-4.5061 0-7.3559 0 .4239-1.699.778-3.1181 1.2341-4.8946z" fill="#015fa0"/></svg>